# Blender v2.80 (sub 75) OBJ File: ''
# www.blender.org
mtllib spaceship3.mtl
o Cube
v 1.000000 1.000000 -1.000000
v 1.000000 -1.000000 -1.000000
v 1.000000 1.000000 1.000000
v 1.000000 -1.000000 1.000000
v -1.000000 1.000000 -1.000000
v -1.000000 -1.000000 -1.000000
v -1.000000 1.000000 1.000000
v -1.000000 -1.000000 1.000000
vt 0.375000 0.000000
vt 0.625000 0.000000
vt 0.625000 0.250000
vt 0.375000 0.250000
vt 0.375000 0.250000
vt 0.625000 0.250000
vt 0.625000 0.500000
vt 0.375000 0.500000
vt 0.625000 0.750000
vt 0.375000 0.750000
vt 0.625000 0.750000
vt 0.625000 1.000000
vt 0.375000 1.000000
vt 0.125000 0.500000
vt 0.375000 0.500000
vt 0.375000 0.750000
vt 0.125000 0.750000
vt 0.625000 0.500000
vt 0.875000 0.500000
vt 0.875000 0.750000
vn 0.0000 1.0000 0.0000
vn 0.0000 0.0000 1.0000
vn -1.0000 0.0000 0.0000
vn 0.0000 -1.0000 0.0000
vn 1.0000 0.0000 0.0000
vn 0.0000 0.0000 -1.0000
usemtl Material
s off
f 1/1/1 5/2/1 7/3/1 3/4/1
f 4/5/2 3/6/2 7/7/2 8/8/2
f 8/8/3 7/7/3 5/9/3 6/10/3
f 6/10/4 2/11/4 4/12/4 8/13/4
f 2/14/5 1/15/5 3/16/5 4/17/5
f 6/18/6 5/19/6 1/20/6 2/11/6
o spaceship3
v -18.213015 -32.072342 356.792603
v 18.213015 -32.072342 356.792603
v 24.005125 -2.527008 365.977478
v -24.005125 -2.527008 365.977478
v 45.075642 18.989101 68.500404
v -45.075642 18.989101 68.500404
v -65.638069 40.362606 -199.588257
v 65.638069 40.362606 -199.588257
v 49.800476 -24.819345 -199.588257
v -49.800476 -24.819345 -199.588257
v 50.886185 24.922522 -13.533778
v -26.772980 91.602310 -57.611519
v 26.772980 91.602310 -57.611519
v 20.554901 107.042412 -267.783356
v -20.554901 107.042412 -267.783356
v 24.104076 73.085785 0.145916
v -24.104076 73.085785 0.145916
v -50.886185 24.922522 -13.533778
vt 0.375000 0.387248
vt 0.625000 0.387248
vt 0.625000 0.387248
vt 0.375000 0.387248
vt 0.625000 0.387248
vt 0.625000 0.387248
vt 0.375000 0.387248
vt 0.375000 0.387248
vt 0.375000 0.000000
vt 0.625000 0.000000
vt 0.625000 0.250000
vt 0.375000 0.250000
vt 0.625000 0.357581
vt 0.375000 0.357581
vt 0.375000 0.500000
vt 0.625000 0.500000
vt 0.625000 0.750000
vt 0.375000 0.750000
vt 0.625000 1.000000
vt 0.375000 1.000000
vt 0.625000 0.500000
vt 0.375000 0.500000
vt 0.762248 0.250000
vt 0.875000 0.000000
vt 0.875000 0.250000
vt 0.125000 0.000000
vt 0.267420 0.250000
vt 0.732580 0.250000
vt 0.237752 0.250000
vt 0.125000 0.250000
vn 0.0000 0.7841 0.6206
vn 0.8805 0.4381 0.1812
vn 0.0000 0.9523 0.3053
vn -0.8813 0.4628 0.0959
vn 0.8813 0.4628 0.0959
vn -0.8805 0.4381 0.1812
vn 0.0000 -0.2969 0.9549
vn 0.0000 0.9974 0.0721
vn 0.0000 0.0000 -1.0000
vn 0.0000 -0.9999 -0.0130
vn 0.0000 0.9973 0.0733
vn 0.8656 0.4975 0.0574
vn 0.0000 -0.7150 -0.6991
vn -0.8656 0.4975 0.0574
vn 0.9732 -0.2235 0.0541
vn 0.9717 -0.2294 0.0560
vn 0.9701 -0.2357 0.0574
vn -0.9717 -0.2294 0.0560
vn -0.9753 -0.2143 0.0529
vn -0.9753 -0.2144 0.0529
vn 0.9753 -0.2144 0.0529
vn 0.9753 -0.2143 0.0529
vn -0.9732 -0.2235 0.0541
vn -0.9701 -0.2357 0.0574
usemtl lambert4SG
s off
f 14/21/7 13/22/7 24/23/7 25/24/7
f 19/25/8 21/26/8 24/23/8
f 21/26/9 20/27/9 25/24/9 24/23/9
f 25/24/10 26/28/10 14/21/10
f 19/25/11 24/23/11 13/22/11
f 20/27/12 26/28/12 25/24/12
usemtl lambert2SG
f 9/29/13 10/30/13 11/31/13 12/32/13
f 12/32/14 11/31/14 13/33/14 14/34/14
f 15/35/15 16/36/15 17/37/15 18/38/15
f 17/37/16 10/39/16 9/40/16 18/38/16
f 20/27/17 21/26/17 22/41/17 23/42/17
f 19/25/18 16/36/18 22/41/18 21/26/18
f 16/36/19 15/35/19 23/42/19 22/41/19
f 15/35/20 26/28/20 20/27/20 23/42/20
s 1
f 19/43/21 17/44/22 16/45/23
f 18/46/24 9/29/25 12/32/25 14/47/26
f 17/44/22 13/48/27 11/31/28 10/30/28
f 18/46/24 26/49/29 15/50/30
f 19/43/21 13/48/27 17/44/22
f 18/46/24 14/47/26 26/49/29
o spaceship3.001
v -52.736565 -20.407436 113.984550
v -52.736565 -6.115307 113.984550
v -67.028694 -6.115307 113.984550
v -67.028694 -20.407436 113.984550
v -52.736565 -6.115302 -9.960351
v -67.028694 -6.115302 -9.960351
v -52.736565 -20.407431 -9.960352
v -67.028694 -20.407431 -9.960352
vt 0.375000 0.000000
vt 0.375000 0.250000
vt 0.625000 0.250000
vt 0.625000 0.000000
vt 0.375000 0.500000
vt 0.625000 0.500000
vt 0.375000 0.750000
vt 0.375000 1.000000
vt 0.625000 1.000000
vt 0.625000 0.750000
vt 0.875000 0.250000
vt 0.875000 0.000000
vt 0.125000 0.000000
vt 0.125000 0.250000
vn 0.0000 0.0000 1.0000
vn 0.0000 1.0000 0.0000
vn 0.0000 -1.0000 -0.0000
vn -1.0000 -0.0000 0.0000
vn 1.0000 0.0000 0.0000
usemtl lambert4SG
s off
f 27/51/31 28/52/31 29/53/31 30/54/31
f 28/52/32 31/55/32 32/56/32 29/53/32
f 33/57/33 27/58/33 30/59/33 34/60/33
f 30/54/34 29/53/34 32/61/34 34/62/34
f 33/63/35 31/64/35 28/52/35 27/51/35
o spaceship3.002
v 52.736565 -20.407436 113.984550
v 67.028694 -20.407436 113.984550
v 67.028694 -6.115307 113.984550
v 52.736565 -6.115307 113.984550
v 67.028694 -6.115302 -9.960351
v 52.736565 -6.115302 -9.960351
v 52.736565 -20.407431 -9.960352
v 67.028694 -20.407431 -9.960352
vt 0.375000 0.000000
vt 0.625000 0.000000
vt 0.625000 0.250000
vt 0.375000 0.250000
vt 0.625000 0.500000
vt 0.375000 0.500000
vt 0.375000 0.750000
vt 0.625000 0.750000
vt 0.625000 1.000000
vt 0.375000 1.000000
vt 0.875000 0.000000
vt 0.875000 0.250000
vt 0.125000 0.000000
vt 0.125000 0.250000
vn 0.0000 0.0000 1.0000
vn 0.0000 1.0000 0.0000
vn 0.0000 -1.0000 -0.0000
vn 1.0000 0.0000 0.0000
vn -1.0000 0.0000 0.0000
usemtl lambert4SG
s off
f 35/65/36 36/66/36 37/67/36 38/68/36
f 38/68/37 37/67/37 39/69/37 40/70/37
f 41/71/38 42/72/38 36/73/38 35/74/38
f 36/66/39 42/75/39 39/76/39 37/67/39
f 41/77/40 35/65/40 38/68/40 40/78/40
o spaceship3.003
v 71.274223 -22.883966 -36.057270
v 105.354065 -41.579010 -19.295732
v 105.354065 -28.518513 -19.295732
v 71.274223 -7.998475 -36.057270
v 128.812485 -28.518505 -153.342651
v 101.006676 -7.998468 -186.795013
v 128.812485 -41.579002 -153.342651
v 101.006676 -22.883961 -186.795013
v 232.777908 -111.479408 43.375320
v 232.777908 -111.479408 -28.264885
v 232.777908 -105.242516 -28.264883
v 232.777908 -105.242516 43.375320
v 214.065018 -91.432846 -50.777821
v 214.065018 -98.897934 -50.777821
v 209.842682 -98.897934 32.095058
v 209.842682 -91.432846 32.095058
vt 0.625000 0.000000
vt 0.875000 0.000000
vt 0.875000 0.250000
vt 0.625000 0.250000
vt 0.375000 0.000000
vt 0.427754 0.000000
vt 0.427754 0.250000
vt 0.375000 0.250000
vt 0.427754 0.500000
vt 0.375000 0.500000
vt 0.427754 0.750000
vt 0.375000 0.750000
vt 0.427754 1.000000
vt 0.375000 1.000000
vt 0.589497 0.500000
vt 0.625000 0.500000
vt 0.625000 0.750000
vt 0.589497 0.750000
vt 0.589497 1.000000
vt 0.625000 1.000000
vt 0.589497 0.250000
vt 0.589497 0.000000
vn 1.0000 0.0000 0.0000
vn -0.4413 0.0000 0.8973
vn 0.4969 0.8628 0.0928
vn 0.5099 0.8572 0.0722
vn 0.5054 0.8592 0.0794
vn 0.7690 0.0000 -0.6392
vn -0.4629 -0.8822 -0.0865
vn -0.4710 -0.8790 -0.0741
vn -0.4754 -0.8772 -0.0673
vn -0.4851 -0.8729 -0.0522
vn -0.4808 -0.8748 -0.0588
vn -0.5088 -0.8608 -0.0139
vn 0.5156 0.8545 0.0630
vn 0.5199 0.8524 0.0560
vn 0.5442 0.8388 0.0149
usemtl lambert3SG
s off
f 51/79/41 52/80/41 53/81/41 54/82/41
s 1
f 43/83/42 44/84/42 45/85/42 46/86/42
f 46/86/43 45/85/44 47/87/45 48/88/43
f 48/88/46 47/87/46 49/89/46 50/90/46
f 50/90/47 49/89/48 44/91/49 43/92/47
f 55/93/46 53/94/46 52/95/46 56/96/46
f 57/97/50 56/96/51 52/95/52 51/98/52
f 58/99/42 57/100/42 51/79/42 54/82/42
f 55/93/53 58/99/54 54/82/55 53/94/55
usemtl lambert2SG
f 47/87/46 55/93/46 56/96/46 49/89/46
f 44/91/49 49/89/48 56/96/51 57/97/50
f 45/85/42 44/84/42 57/100/42 58/99/42
f 47/87/45 45/85/44 58/99/54 55/93/53
o spaceship3.004
v -71.274223 -22.883966 -36.057270
v -71.274223 -7.998475 -36.057270
v -105.354065 -28.518513 -19.295732
v -105.354065 -41.579010 -19.295732
v -101.006676 -7.998468 -186.795013
v -128.812485 -28.518505 -153.342651
v -101.006676 -22.883961 -186.795013
v -128.812485 -41.579002 -153.342651
v -232.777908 -111.479408 43.375320
v -232.777908 -105.242516 43.375320
v -232.777908 -105.242516 -28.264883
v -232.777908 -111.479408 -28.264885
v -214.065018 -98.897934 -50.777821
v -214.065018 -91.432846 -50.777821
v -209.842682 -98.897934 32.095058
v -209.842682 -91.432846 32.095058
vt 0.625000 0.000000
vt 0.625000 0.250000
vt 0.875000 0.250000
vt 0.875000 0.000000
vt 0.375000 0.000000
vt 0.375000 0.250000
vt 0.427754 0.250000
vt 0.427754 0.000000
vt 0.375000 0.500000
vt 0.427754 0.500000
vt 0.375000 0.750000
vt 0.427754 0.750000
vt 0.375000 1.000000
vt 0.427754 1.000000
vt 0.589497 0.500000
vt 0.589497 0.750000
vt 0.625000 0.750000
vt 0.625000 0.500000
vt 0.589497 1.000000
vt 0.625000 1.000000
vt 0.589497 0.250000
vt 0.589497 0.000000
vn -1.0000 -0.0000 0.0000
vn 0.4413 0.0000 0.8973
vn -0.4969 0.8628 0.0928
vn -0.5054 0.8592 0.0794
vn -0.5099 0.8572 0.0722
vn -0.7690 0.0000 -0.6392
vn 0.4629 -0.8822 -0.0865
vn 0.4754 -0.8772 -0.0673
vn 0.4710 -0.8790 -0.0741
vn 0.4851 -0.8729 -0.0522
vn 0.5088 -0.8608 -0.0139
vn 0.4808 -0.8748 -0.0588
vn -0.5156 0.8545 0.0630
vn -0.5442 0.8388 0.0149
vn -0.5199 0.8524 0.0560
usemtl lambert3SG
s off
f 67/101/56 68/102/56 69/103/56 70/104/56
s 1
f 59/105/57 60/106/57 61/107/57 62/108/57
f 60/106/58 63/109/58 64/110/59 61/107/60
f 63/109/61 65/111/61 66/112/61 64/110/61
f 65/111/62 59/113/62 62/114/63 66/112/64
f 72/115/61 71/116/61 70/117/61 69/118/61
f 73/119/65 67/120/66 70/117/66 71/116/67
f 74/121/57 68/102/57 67/101/57 73/122/57
f 72/115/68 69/118/69 68/102/69 74/121/70
usemtl lambert2SG
f 64/110/61 66/112/61 71/116/61 72/115/61
f 62/114/63 73/119/65 71/116/67 66/112/64
f 61/107/57 74/121/57 73/122/57 62/108/57
f 64/110/59 72/115/68 74/121/70 61/107/60
o spaceship3.005
v -25.239109 -21.715012 71.467651
v -43.854076 15.747403 71.467651
v -83.317993 -3.862107 -20.916771
v -64.703026 -41.324520 -20.916773
v -62.921947 33.246292 -195.216507
v -120.413734 4.678783 -195.216507
v -40.264114 -19.958412 -195.216507
v -94.724854 -47.019802 -195.216507
vt 0.375000 0.000000
vt 0.375000 0.250000
vt 0.625000 0.250000
vt 0.625000 0.000000
vt 0.375000 0.500000
vt 0.625000 0.500000
vt 0.375000 0.750000
vt 0.625000 0.750000
vt 0.375000 1.000000
vt 0.625000 1.000000
vt 0.875000 0.250000
vt 0.875000 0.000000
vn -0.8083 -0.4016 0.4305
vn -0.5291 0.8404 0.1170
vn -0.0000 0.0000 -1.0000
vn 0.4765 -0.8782 -0.0408
vn -0.8830 -0.4388 0.1664
usemtl lambert3SG
s off
f 75/123/71 76/124/71 77/125/71 78/126/71
f 76/124/72 79/127/72 80/128/72 77/125/72
f 79/127/73 81/129/73 82/130/73 80/128/73
f 81/129/74 75/131/74 78/132/74 82/130/74
f 78/126/75 77/125/75 80/133/75 82/134/75
o spaceship3.006
v 25.239109 -21.715012 71.467651
v 64.703026 -41.324520 -20.916773
v 83.317993 -3.862107 -20.916771
v 43.854076 15.747403 71.467651
v 120.413734 4.678783 -195.216507
v 62.921947 33.246292 -195.216507
v 94.724854 -47.019802 -195.216507
v 40.264114 -19.958412 -195.216507
vt 0.375000 0.000000
vt 0.625000 0.000000
vt 0.625000 0.250000
vt 0.375000 0.250000
vt 0.625000 0.500000
vt 0.375000 0.500000
vt 0.625000 0.750000
vt 0.375000 0.750000
vt 0.625000 1.000000
vt 0.375000 1.000000
vt 0.875000 0.000000
vt 0.875000 0.250000
vn 0.8083 -0.4016 0.4305
vn 0.5291 0.8404 0.1170
vn 0.0000 0.0000 -1.0000
vn -0.4765 -0.8782 -0.0408
vn 0.8830 -0.4388 0.1664
usemtl lambert3SG
s off
f 83/135/76 84/136/76 85/137/76 86/138/76
f 86/138/77 85/137/77 87/139/77 88/140/77
f 88/140/78 87/139/78 89/141/78 90/142/78
f 90/142/79 89/141/79 84/143/79 83/144/79
f 84/136/80 89/145/80 87/146/80 85/137/80
o spaceship3.007
v -59.475906 -15.323920 -62.843037
v -59.475906 -0.791233 -62.843037
v -102.274704 15.578606 -62.716499
v -102.274704 2.976683 -62.716499
v -100.748833 11.911221 -186.683533
v -122.189125 20.323822 -170.356445
v -104.554054 -0.313270 -186.683533
v -125.180054 9.536154 -170.356445
v -200.939316 48.954811 -62.251701
v -200.939316 54.465034 -62.251701
v -200.939316 51.223305 -110.386940
v -200.939316 45.713081 -110.386940
vt 0.375000 0.000000
vt 0.375000 0.250000
vt 0.428499 0.250000
vt 0.428499 0.000000
vt 0.375000 0.500000
vt 0.428499 0.500000
vt 0.375000 0.750000
vt 0.428499 0.750000
vt 0.375000 1.000000
vt 0.428499 1.000000
vt 0.625000 0.000000
vt 0.625000 0.250000
vt 0.875000 0.250000
vt 0.875000 0.000000
vt 0.625000 0.500000
vt 0.625000 0.750000
vt 0.625000 1.000000
vn 0.0030 0.0000 1.0000
vn 0.0040 0.0000 1.0000
vn 0.0036 0.0000 1.0000
vn 0.3546 0.9347 -0.0233
vn 0.3549 0.9344 -0.0299
vn 0.3549 0.9344 -0.0310
vn -0.5591 0.1651 -0.8125
vn -0.5738 0.1255 -0.8093
vn -0.5750 0.1220 -0.8090
vn -0.3986 -0.9166 0.0317
vn -0.4076 -0.9124 0.0374
vn -0.4066 -0.9129 0.0368
vn -1.0000 0.0000 0.0000
vn 0.3551 0.9341 -0.0364
vn -0.5804 0.1065 -0.8073
vn -0.4139 -0.9094 0.0415
vn 0.0047 0.0000 1.0000
usemtl lambert3SG
s 1
f 91/147/81 92/148/81 93/149/82 94/150/83
f 92/148/84 95/151/84 96/152/85 93/149/86
f 95/151/87 97/153/87 98/154/88 96/152/89
f 97/153/90 91/155/90 94/156/91 98/154/92
usemtl lambert2SG
s off
f 99/157/93 100/158/93 101/159/93 102/160/93
s 1
f 93/149/86 96/152/85 101/161/94 100/158/94
f 98/154/88 102/162/95 101/161/95 96/152/89
f 94/156/91 99/163/96 102/162/96 98/154/92
f 93/149/82 100/158/97 99/157/97 94/150/83
o spaceship3.008
v 59.475906 -15.323920 -62.843037
v 102.274704 2.976683 -62.716499
v 102.274704 15.578606 -62.716499
v 59.475906 -0.791233 -62.843037
v 122.189125 20.323822 -170.356445
v 100.748833 11.911221 -186.683533
v 125.180054 9.536154 -170.356445
v 104.554054 -0.313270 -186.683533
v 200.939316 48.954811 -62.251701
v 200.939316 45.713081 -110.386940
v 200.939316 51.223305 -110.386940
v 200.939316 54.465034 -62.251701
vt 0.375000 0.000000
vt 0.428499 0.000000
vt 0.428499 0.250000
vt 0.375000 0.250000
vt 0.428499 0.500000
vt 0.375000 0.500000
vt 0.428499 0.750000
vt 0.375000 0.750000
vt 0.428499 1.000000
vt 0.375000 1.000000
vt 0.625000 0.000000
vt 0.875000 0.000000
vt 0.875000 0.250000
vt 0.625000 0.250000
vt 0.625000 0.500000
vt 0.625000 0.750000
vt 0.625000 1.000000
vn -0.0030 0.0000 1.0000
vn -0.0036 0.0000 1.0000
vn -0.0040 0.0000 1.0000
vn -0.3546 0.9347 -0.0233
vn -0.3549 0.9344 -0.0310
vn -0.3549 0.9344 -0.0299
vn 0.5591 0.1651 -0.8125
vn 0.5750 0.1221 -0.8090
vn 0.5738 0.1255 -0.8093
vn 0.3986 -0.9166 0.0317
vn 0.4066 -0.9129 0.0368
vn 0.4076 -0.9124 0.0374
vn 1.0000 0.0000 0.0000
vn -0.3551 0.9341 -0.0364
vn 0.5804 0.1065 -0.8073
vn 0.4139 -0.9094 0.0415
vn -0.0047 0.0000 1.0000
usemtl lambert3SG
s 1
f 103/164/98 104/165/99 105/166/100 106/167/98
f 106/167/101 105/166/102 107/168/103 108/169/101
f 108/169/104 107/168/105 109/170/106 110/171/104
f 110/171/107 109/170/108 104/172/109 103/173/107
usemtl lambert2SG
s off
f 111/174/110 112/175/110 113/176/110 114/177/110
s 1
f 105/166/102 114/177/111 113/178/111 107/168/103
f 109/170/106 107/168/105 113/178/112 112/179/112
f 104/172/109 109/170/108 112/179/113 111/180/113
f 105/166/100 104/165/99 111/174/114 114/177/114
o spaceship3.009
v -56.120663 -17.023342 211.509933
v -56.120663 -9.499409 211.509933
v -63.644596 -9.499409 211.509933
v -63.644596 -17.023342 211.509933
v -56.120663 -9.499404 113.183533
v -63.644596 -9.499404 113.183533
v -56.120663 -17.023338 113.183533
v -63.644596 -17.023338 113.183533
vt 0.375000 0.000000
vt 0.375000 0.250000
vt 0.625000 0.250000
vt 0.625000 0.000000
vt 0.375000 0.500000
vt 0.625000 0.500000
vt 0.375000 0.750000
vt 0.375000 1.000000
vt 0.625000 1.000000
vt 0.625000 0.750000
vt 0.875000 0.250000
vt 0.875000 0.000000
vt 0.125000 0.000000
vt 0.125000 0.250000
vn 0.0000 0.0000 1.0000
vn 0.0000 1.0000 0.0000
vn 0.0000 -1.0000 -0.0000
vn -1.0000 0.0000 0.0000
vn 1.0000 0.0000 0.0000
usemtl lambert4SG
s off
f 115/181/115 116/182/115 117/183/115 118/184/115
f 116/182/116 119/185/116 120/186/116 117/183/116
f 121/187/117 115/188/117 118/189/117 122/190/117
f 118/184/118 117/183/118 120/191/118 122/192/118
f 121/193/119 119/194/119 116/182/119 115/181/119
o spaceship3.010
v 72.019104 21.959061 -194.598221
v 112.793762 1.266094 -194.598221
v 127.440735 6.051328 -236.277100
v 67.233871 36.606045 -236.277100
v 75.399834 11.611116 -219.801620
v 102.445831 -2.114609 -219.801620
v 88.720108 -29.160639 -219.801620
v 61.674080 -15.434900 -219.801620
v 36.679169 -23.600842 -236.277100
v 96.886024 -54.155540 -236.277100
v 92.100792 -39.508564 -194.598221
v 51.326141 -18.815615 -194.598221
v 112.638763 1.215460 -236.277100
v 72.069740 21.804056 -236.277100
v 92.050163 -39.353565 -236.277100
v 51.481140 -18.764975 -236.277100
vt 0.375000 0.500000
vt 0.625000 0.500000
vt 0.625000 0.750000
vt 0.375000 0.750000
vt 0.375000 0.250000
vt 0.625000 0.250000
vt 0.625000 0.500000
vt 0.375000 0.500000
vt 0.375000 0.750000
vt 0.625000 0.750000
vt 0.625000 1.000000
vt 0.375000 1.000000
vt 0.625000 0.000000
vt 0.875000 0.000000
vt 0.875000 0.250000
vt 0.125000 0.000000
vt 0.375000 0.000000
vt 0.125000 0.250000
vt 0.375000 0.500000
vt 0.625000 0.500000
vt 0.625000 0.750000
vt 0.375000 0.750000
vn -0.0000 0.0000 -1.0000
vn 0.4378 0.8627 0.2529
vn -0.4378 -0.8627 0.2529
vn 0.8627 -0.4378 0.2529
vn -0.8627 0.4378 0.2529
vn -0.4111 -0.8101 -0.4181
vn -0.8101 0.4111 -0.4181
vn 0.4111 0.8101 -0.4181
vn 0.8101 -0.4111 -0.4181
usemtl lambert4SG
s off
f 127/195/120 128/196/120 129/197/120 130/198/120
usemtl lambert2SG
f 123/199/121 124/200/121 125/201/121 126/202/121
f 131/203/122 132/204/122 133/205/122 134/206/122
f 133/207/123 132/208/123 125/209/123 124/200/123
f 131/210/124 134/211/124 123/199/124 126/212/124
f 136/213/125 135/214/125 128/196/125 127/195/125
f 135/214/126 137/215/126 129/197/126 128/196/126
f 137/215/127 138/216/127 130/198/127 129/197/127
f 138/216/128 136/213/128 127/195/128 130/198/128
s 1
f 126/202/120 125/201/120 135/214/120 136/213/120
f 125/201/120 132/204/120 137/215/120 135/214/120
f 132/204/120 131/203/120 138/216/120 137/215/120
f 131/203/120 126/202/120 136/213/120 138/216/120
o spaceship3.011
v 56.120663 -17.023342 211.509933
v 63.644596 -17.023342 211.509933
v 63.644596 -9.499409 211.509933
v 56.120663 -9.499409 211.509933
v 63.644596 -9.499404 113.183533
v 56.120663 -9.499404 113.183533
v 56.120663 -17.023338 113.183533
v 63.644596 -17.023338 113.183533
vt 0.375000 0.000000
vt 0.625000 0.000000
vt 0.625000 0.250000
vt 0.375000 0.250000
vt 0.625000 0.500000
vt 0.375000 0.500000
vt 0.375000 0.750000
vt 0.625000 0.750000
vt 0.625000 1.000000
vt 0.375000 1.000000
vt 0.875000 0.000000
vt 0.875000 0.250000
vt 0.125000 0.000000
vt 0.125000 0.250000
vn 0.0000 0.0000 1.0000
vn 0.0000 1.0000 0.0000
vn 0.0000 -1.0000 -0.0000
vn 1.0000 0.0000 0.0000
vn -1.0000 0.0000 0.0000
usemtl lambert4SG
s off
f 139/217/129 140/218/129 141/219/129 142/220/129
f 142/220/130 141/219/130 143/221/130 144/222/130
f 145/223/131 146/224/131 140/225/131 139/226/131
f 140/218/132 146/227/132 143/228/132 141/219/132
f 145/229/133 139/217/133 142/220/133 144/230/133
o spaceship3.012
v -72.019104 21.959061 -194.598221
v -67.233871 36.606045 -236.277100
v -127.440735 6.051328 -236.277100
v -112.793762 1.266094 -194.598221
v -75.399834 11.611116 -219.801620
v -61.674080 -15.434900 -219.801620
v -88.720108 -29.160639 -219.801620
v -102.445831 -2.114609 -219.801620
v -36.679169 -23.600842 -236.277100
v -51.326141 -18.815615 -194.598221
v -92.100792 -39.508564 -194.598221
v -96.886024 -54.155540 -236.277100
v -72.069740 21.804056 -236.277100
v -112.638763 1.215460 -236.277100
v -92.050163 -39.353565 -236.277100
v -51.481140 -18.764975 -236.277100
vt 0.375000 0.500000
vt 0.375000 0.750000
vt 0.625000 0.750000
vt 0.625000 0.500000
vt 0.375000 0.250000
vt 0.375000 0.500000
vt 0.625000 0.500000
vt 0.625000 0.250000
vt 0.375000 0.750000
vt 0.375000 1.000000
vt 0.625000 1.000000
vt 0.625000 0.750000
vt 0.625000 0.000000
vt 0.875000 0.250000
vt 0.875000 0.000000
vt 0.125000 0.000000
vt 0.125000 0.250000
vt 0.375000 0.000000
vt 0.375000 0.500000
vt 0.625000 0.500000
vt 0.625000 0.750000
vt 0.375000 0.750000
vn 0.0000 0.0000 -1.0000
vn -0.4378 0.8627 0.2529
vn 0.4378 -0.8627 0.2529
vn -0.8627 -0.4378 0.2529
vn 0.8627 0.4378 0.2529
vn 0.4111 -0.8101 -0.4181
vn 0.8101 0.4111 -0.4181
vn -0.4111 0.8101 -0.4181
vn -0.8101 -0.4111 -0.4181
usemtl lambert4SG
s off
f 151/231/134 152/232/134 153/233/134 154/234/134
usemtl lambert2SG
f 147/235/135 148/236/135 149/237/135 150/238/135
f 155/239/136 156/240/136 157/241/136 158/242/136
f 157/243/137 150/238/137 149/244/137 158/245/137
f 155/246/138 148/247/138 147/235/138 156/248/138
f 159/249/139 151/231/139 154/234/139 160/250/139
f 160/250/140 154/234/140 153/233/140 161/251/140
f 161/251/141 153/233/141 152/232/141 162/252/141
f 162/252/142 152/232/142 151/231/142 159/249/142
s 1
f 148/236/134 159/249/134 160/250/134 149/237/134
f 149/237/134 160/250/134 161/251/134 158/242/134
f 158/242/134 161/251/134 162/252/134 155/239/134
f 155/239/134 162/252/134 159/249/134 148/236/134
o spaceship3.013
v -6.281157 92.561493 -74.784302
v 6.281157 92.561493 -74.784302
v 3.380893 128.673462 -180.894836
v -3.380893 128.673462 -180.894836
v 3.315768 128.673462 -216.254776
v -3.315768 128.673462 -216.254776
v 11.407578 92.531799 -212.059692
v -11.407578 92.531799 -212.059692
vt 0.375000 0.000000
vt 0.625000 0.000000
vt 0.625000 0.250000
vt 0.375000 0.250000
vt 0.625000 0.500000
vt 0.375000 0.500000
vt 0.625000 0.750000
vt 0.375000 0.750000
vt 0.875000 0.000000
vt 0.875000 0.250000
vt 0.125000 0.000000
vt 0.125000 0.250000
vn 0.0000 0.9467 0.3222
vn 0.0000 1.0000 0.0000
vn 0.0000 -0.1153 -0.9933
vn 0.9808 0.1931 0.0287
vn -0.9808 0.1931 0.0287
usemtl lambert3SG
s off
f 163/253/143 164/254/143 165/255/143 166/256/143
f 166/256/144 165/255/144 167/257/144 168/258/144
f 168/258/145 167/257/145 169/259/145 170/260/145
f 164/254/146 169/261/146 167/262/146 165/255/146
f 170/263/147 163/253/147 166/256/147 168/264/147
