# Blender v2.80 (sub 75) OBJ File: 'spaceship1.blend'
# www.blender.org
mtllib spaceship1.mtl
o Cube
v 1.000000 1.000000 -1.000000
v 1.000000 -1.000000 -1.000000
v 1.000000 1.000000 1.000000
v 1.000000 -1.000000 1.000000
v -1.000000 1.000000 -1.000000
v -1.000000 -1.000000 -1.000000
v -1.000000 1.000000 1.000000
v -1.000000 -1.000000 1.000000
vt 0.375000 0.000000
vt 0.625000 0.000000
vt 0.625000 0.250000
vt 0.375000 0.250000
vt 0.375000 0.250000
vt 0.625000 0.250000
vt 0.625000 0.500000
vt 0.375000 0.500000
vt 0.625000 0.750000
vt 0.375000 0.750000
vt 0.625000 0.750000
vt 0.625000 1.000000
vt 0.375000 1.000000
vt 0.125000 0.500000
vt 0.375000 0.500000
vt 0.375000 0.750000
vt 0.125000 0.750000
vt 0.625000 0.500000
vt 0.875000 0.500000
vt 0.875000 0.750000
vn 0.0000 1.0000 0.0000
vn 0.0000 0.0000 1.0000
vn -1.0000 0.0000 0.0000
vn 0.0000 -1.0000 0.0000
vn 1.0000 0.0000 0.0000
vn 0.0000 0.0000 -1.0000
usemtl Material
s off
f 1/1/1 5/2/1 7/3/1 3/4/1
f 4/5/2 3/6/2 7/7/2 8/8/2
f 8/8/3 7/7/3 5/9/3 6/10/3
f 6/10/4 2/11/4 4/12/4 8/13/4
f 2/14/5 1/15/5 3/16/5 4/17/5
f 6/18/6 5/19/6 1/20/6 2/11/6
o spaceship1
v -29.178764 32.106785 -38.944324
v 29.178764 32.106785 -38.944324
v 16.964350 58.077938 -77.867577
v -16.964350 58.077938 -77.867577
v 29.178764 32.106789 -111.393845
v 29.178764 32.106792 -192.023560
v 16.964350 71.711456 -213.298737
v 16.964350 68.916496 -132.591064
v -29.178764 32.106792 -192.023560
v -29.178764 32.106789 -111.393845
v -16.964350 68.916496 -132.591064
v -16.964350 71.711456 -213.298737
v 35.507736 32.518112 -216.300323
v 35.507736 -5.792552 -216.300323
v 35.507736 32.518112 -137.653717
v 35.507736 -5.792555 -137.653717
v -35.157372 -15.673171 -26.716082
v 35.157372 -15.673171 -26.716082
v 35.157372 32.882175 -26.716080
v -35.157372 32.882175 -26.716080
v 35.157372 32.882183 -197.167191
v -35.157372 32.882183 -197.167191
v 35.157372 -15.673163 -197.167191
v -35.157372 -15.673163 -197.167191
v -35.507736 32.518112 -216.300323
v -35.507736 -5.792552 -216.300323
v -35.507736 32.518112 -137.653717
v -35.507736 -5.792555 -137.653717
v -20.777054 27.609266 -196.277466
v 20.253265 27.609266 -196.277466
v 33.699680 41.055691 -237.902130
v -34.223492 41.055691 -237.902130
v -13.790646 20.622860 -223.397095
v 13.266852 20.622860 -223.397095
v 13.266852 -6.434639 -223.397095
v -13.790646 -6.434639 -223.397095
v -34.223492 -26.867476 -237.902130
v 33.699680 -26.867476 -237.902130
v 20.253265 -13.421055 -196.277466
v -20.777054 -13.421055 -196.277466
v 21.099285 28.455294 -237.210724
v -21.623077 28.455294 -237.210724
v 21.099285 -14.267071 -237.210724
v -21.623077 -14.267071 -237.210724
v -7.234537 68.916496 -132.591064
v -7.234537 71.711456 -213.298737
v 7.234537 71.711456 -213.298737
v 7.234537 68.916496 -132.591064
v -2.350932 148.571548 -246.680771
v -2.350932 149.005585 -266.114990
v 2.350932 149.005585 -266.114990
v 2.350932 148.571548 -246.680771
vt 0.375000 0.000000
vt 0.625000 0.000000
vt 0.625000 0.072214
vt 0.375000 0.072214
vt 0.625000 0.072214
vt 0.375000 0.072214
vt 0.375000 0.500000
vt 0.625000 0.500000
vt 0.625000 0.750000
vt 0.375000 0.750000
vt 0.625000 0.000000
vt 0.375000 0.000000
vt 0.000000 0.000000
vt 1.000000 0.000000
vt 1.000000 1.000000
vt 0.000000 1.000000
vt 0.000000 0.000000
vt 1.000000 0.000000
vt 1.000000 1.000000
vt 0.000000 1.000000
vt 0.000000 0.000000
vt 0.216423 0.000000
vt 0.488112 1.000000
vt 0.271689 0.000000
vt 0.488112 0.000000
vt 0.000000 1.000000
vt 0.112584 0.000000
vt 1.000000 0.000000
vt 0.545919 0.930280
vt 0.000000 0.230652
vt 0.875000 0.000000
vt 0.875000 0.072214
vt 0.125000 0.000000
vt 0.125000 0.072214
vt 0.375000 0.000000
vt 0.625000 0.000000
vt 0.625000 0.250000
vt 0.375000 0.250000
vt 0.625000 0.500000
vt 0.375000 0.500000
vt 0.625000 0.750000
vt 0.375000 0.750000
vt 0.625000 1.000000
vt 0.375000 1.000000
vt 0.875000 0.000000
vt 0.875000 0.250000
vt 0.375000 0.250000
vt 0.625000 0.250000
vt 0.625000 0.500000
vt 0.375000 0.500000
vt 0.375000 0.750000
vt 0.625000 0.750000
vt 0.625000 1.000000
vt 0.375000 1.000000
vt 0.625000 0.000000
vt 0.875000 0.000000
vt 0.875000 0.250000
vt 0.125000 0.000000
vt 0.375000 0.000000
vt 0.125000 0.250000
vt 0.375000 0.500000
vt 0.625000 0.500000
vt 0.625000 0.750000
vt 0.375000 0.750000
vt 0.000000 0.000000
vt 1.000000 0.000000
vt 1.000000 1.000000
vt 0.000000 1.000000
vt 0.000000 0.000000
vt 1.000000 0.000000
vt 1.000000 1.000000
vt 0.000000 1.000000
vt 0.998817 0.000000
vt 1.000000 0.033710
vt 0.003641 0.103735
vt 0.000000 0.000000
vt 1.000000 0.000000
vt 1.000000 0.241877
vt 0.000000 0.241877
vt 0.002501 0.000000
vt 0.992304 0.150619
vt 0.000000 0.048945
vt 0.125000 0.000000
vt 0.135675 0.000000
vt 0.135675 0.250000
vt 0.125000 0.250000
vt 0.125000 0.000000
vt 0.125000 0.250000
vt 0.135675 0.250000
vt 0.135675 0.000000
vn 0.0000 0.8318 0.5550
vn 0.0000 0.9809 0.1943
vn 0.0000 0.0000 -1.0000
vn 0.9355 0.3527 0.0206
vn 0.9458 0.3246 0.0111
vn 0.9203 0.3899 0.0332
vn -0.9458 0.3246 0.0111
vn -0.9355 0.3527 0.0206
vn -0.9203 0.3899 0.0332
vn 0.0000 0.9994 0.0346
vn 0.0000 -0.4732 -0.8809
vn 0.9516 0.3072 0.0053
vn -0.9516 0.3072 0.0053
vn 0.0000 -1.0000 -0.0000
vn 0.0000 -0.0000 1.0000
vn 0.0000 1.0000 0.0000
vn 1.0000 0.0000 0.0000
vn 0.0000 0.9516 0.3074
vn 0.0000 -0.9516 0.3074
vn 0.9516 0.0000 0.3074
vn -0.9516 0.0000 0.3074
vn 0.0000 -0.8699 -0.4932
vn -0.8699 0.0000 -0.4932
vn 0.0000 0.8699 -0.4932
vn 0.8699 0.0000 -0.4932
vn -0.9979 0.0643 0.0021
vn 0.9979 0.0643 0.0021
vn 0.0000 0.8199 0.5725
vn 0.0000 0.9998 0.0223
vn 0.0000 -0.5642 -0.8257
vn -1.0000 0.0000 0.0000
vn 0.0274 -0.0274 -0.9992
vn -0.0274 -0.0274 -0.9992
vn -0.0274 0.0274 -0.9992
vn 0.0274 0.0274 -0.9992
usemtl lambert4SG
s off
f 9/21/7 10/22/7 11/23/7 12/24/7
f 16/25/8 19/26/8 12/24/8 11/23/8
f 41/27/9 42/28/9 43/29/9 44/30/9
s 1
f 13/31/10 16/25/11 11/23/12 10/22/12
f 19/26/13 18/32/14 9/21/15 12/24/15
usemtl lambert3SG
s off
f 20/33/16 19/34/16 53/35/16 54/36/16
f 16/37/16 15/38/16 55/39/16 56/40/16
f 55/41/17 15/42/17 14/43/17
f 20/44/17 54/45/17 17/46/17
f 55/47/17 14/48/17 17/49/17 54/50/17
s 1
f 13/31/10 14/51/18 15/52/18 16/25/11
f 17/53/19 18/32/14 19/26/13 20/54/19
usemtl lambert2SG
s off
f 18/32/20 13/31/20 10/22/20 9/21/20
f 25/55/21 26/56/21 27/57/21 28/58/21
f 28/58/22 27/57/22 29/59/22 30/60/22
f 30/60/9 29/59/9 31/61/9 32/62/9
f 32/62/20 31/61/20 26/63/20 25/64/20
f 26/56/23 31/65/23 29/66/23 27/57/23
f 37/67/24 38/68/24 39/69/24 40/70/24
f 45/71/25 46/72/25 47/73/25 48/74/25
f 47/75/26 46/76/26 39/77/26 38/68/26
f 45/78/27 48/79/27 37/67/27 40/80/27
f 50/81/28 49/82/28 42/28/28 41/27/28
f 49/82/29 51/83/29 43/29/29 42/28/29
f 51/83/30 52/84/30 44/30/30 43/29/30
f 52/84/31 50/81/31 41/27/31 44/30/31
f 54/85/32 53/86/32 57/87/32 58/88/32
f 56/89/33 55/90/33 59/91/33 60/92/33
f 56/89/34 60/93/34 57/94/34 53/95/34
f 60/96/35 59/97/35 58/98/35 57/99/35
f 59/100/36 55/90/36 54/101/36 58/102/36
s 1
f 22/103/37 24/104/37 23/105/37 21/106/37
f 34/107/23 33/108/23 35/109/23 36/110/23
f 40/70/38 39/69/39 49/82/39 50/81/38
f 39/69/39 46/72/40 51/83/40 49/82/39
f 46/72/40 45/71/41 52/84/41 51/83/40
f 45/71/41 40/70/38 50/81/38 52/84/41
o wingleftext_spaceship1.001
v 130.485825 -12.467737 11.455842
v 317.377594 -80.528938 -213.220337
v 317.377594 -73.768921 -213.220337
v 130.485825 -0.728432 11.455843
v 318.645782 -73.768913 -284.933380
v 145.798508 -0.728424 -193.599503
v 318.645782 -80.528931 -284.933380
v 145.798508 -12.467728 -193.599503
vt 0.375000 0.000000
vt 0.625000 0.000000
vt 0.625000 0.250000
vt 0.375000 0.250000
vt 0.625000 0.500000
vt 0.375000 0.500000
vt 0.625000 0.750000
vt 0.375000 0.750000
vt 0.625000 1.000000
vt 0.375000 1.000000
vt 0.875000 0.000000
vt 0.875000 0.250000
vn 0.7688 0.0000 0.6395
vn 0.3939 0.9189 0.0236
vn -0.4672 0.0000 -0.8842
vn -0.3708 -0.9284 -0.0222
vn 0.9998 0.0000 0.0177
usemtl lambert2SG
s off
f 61/111/42 62/112/42 63/113/42 64/114/42
f 64/114/43 63/113/43 65/115/43 66/116/43
f 66/116/44 65/115/44 67/117/44 68/118/44
f 68/118/45 67/117/45 62/119/45 61/120/45
f 62/112/46 67/121/46 65/122/46 63/113/46
o wingrightext_spaceship1.002
v -130.485825 -12.467737 11.455842
v -130.485825 -0.728432 11.455843
v -317.377594 -73.768921 -213.220337
v -317.377594 -80.528938 -213.220337
v -145.798508 -0.728424 -193.599503
v -318.645782 -73.768913 -284.933380
v -145.798508 -12.467728 -193.599503
v -318.645782 -80.528931 -284.933380
vt 0.375000 0.000000
vt 0.375000 0.250000
vt 0.625000 0.250000
vt 0.625000 0.000000
vt 0.375000 0.500000
vt 0.625000 0.500000
vt 0.375000 0.750000
vt 0.625000 0.750000
vt 0.375000 1.000000
vt 0.625000 1.000000
vt 0.875000 0.250000
vt 0.875000 0.000000
vn -0.7688 0.0000 0.6395
vn -0.3939 0.9189 0.0236
vn 0.4672 0.0000 -0.8842
vn 0.3708 -0.9284 -0.0222
vn -0.9998 0.0000 0.0177
usemtl lambert2SG
s off
f 69/123/47 70/124/47 71/125/47 72/126/47
f 70/124/48 73/127/48 74/128/48 71/125/48
f 73/127/49 75/129/49 76/130/49 74/128/49
f 75/129/50 69/131/50 72/132/50 76/130/50
f 72/126/51 71/125/51 74/133/51 76/134/51
o wingleft_spaceship1.003
v 35.507736 -5.792575 330.269348
v 105.533394 -13.704062 330.269257
v 105.533394 0.107051 330.269257
v 35.507736 32.518089 330.269348
v 124.189018 0.107061 99.815620
v 35.507736 32.518097 165.279648
v 35.507736 32.518112 -216.300323
v 149.779144 0.107074 -216.300323
v 149.779144 -13.704038 -216.300323
v 35.507736 -5.792552 -216.300323
v 35.507736 -5.792568 165.279648
v 124.189018 -13.704052 99.815620
v 35.507736 32.518112 -137.653717
v 147.889938 0.107073 -192.962845
v 35.507736 -5.792555 -137.653717
v 147.889938 -13.704039 -192.962845
v 35.507736 32.518105 41.830727
v 133.979431 0.107066 -21.125738
v 35.507736 -5.792563 41.830727
v 133.979431 -13.704046 -21.125738
v 35.507736 32.518101 128.771225
v 127.265549 0.107062 61.811005
v 35.507736 -5.792567 128.771225
v 127.265549 -13.704050 61.811005
vt 0.375000 0.410727
vt 0.625000 0.410727
vt 0.625000 0.489325
vt 0.375000 0.489325
vt 0.135675 0.000000
vt 0.214273 0.000000
vt 0.214273 0.250000
vt 0.135675 0.250000
vt 0.375000 0.760675
vt 0.625000 0.760675
vt 0.625000 0.839273
vt 0.375000 0.839273
vt 0.785728 0.250000
vt 0.785728 0.000000
vt 0.864325 0.000000
vt 0.864325 0.250000
vt 0.375000 0.355409
vt 0.625000 0.355409
vt 0.625000 0.372792
vt 0.375000 0.372792
vt 0.252208 0.000000
vt 0.269591 0.000000
vt 0.269591 0.250000
vt 0.252208 0.250000
vt 0.375000 0.877208
vt 0.625000 0.877208
vt 0.625000 0.894591
vt 0.375000 0.894591
vt 0.730409 0.250000
vt 0.730409 0.000000
vt 0.747792 0.000000
vt 0.747792 0.250000
vt 0.375000 0.000000
vt 0.625000 0.000000
vt 0.625000 0.250000
vt 0.375000 0.250000
vt 0.375000 0.500000
vt 0.625000 0.500000
vt 0.625000 0.750000
vt 0.375000 0.750000
vt 0.625000 1.000000
vt 0.375000 1.000000
vt 0.875000 0.000000
vt 0.875000 0.250000
vn 0.3145 0.9492 0.0124
vn 0.3048 0.9523 0.0121
vn 0.2908 0.9568 0.0093
vn 0.2964 0.9550 0.0109
vn -1.0000 0.0000 0.0000
vn -0.0756 -0.9971 -0.0028
vn -0.0739 -0.9973 -0.0023
vn -0.0779 -0.9970 -0.0031
vn -0.0807 -0.9967 -0.0032
vn 0.9967 0.0000 0.0807
vn 0.3813 0.9243 0.0178
vn 0.3717 0.9282 0.0168
vn 0.3329 0.9429 0.0132
vn 0.3387 0.9408 0.0137
vn -0.0876 -0.9961 -0.0035
vn -0.0858 -0.9963 -0.0034
vn -0.0972 -0.9953 -0.0044
vn -0.1003 -0.9949 -0.0047
vn 0.0000 0.0000 1.0000
vn 0.0000 0.0000 -1.0000
vn 0.3845 0.9230 0.0181
vn -0.1012 -0.9949 -0.0048
vn 0.2761 0.9611 0.0051
vn -0.0700 -0.9975 -0.0013
usemtl lambert3SG
s 1
f 93/135/52 94/136/53 90/137/54 89/138/55
f 91/139/56 95/140/56 93/141/56 89/142/56
f 91/143/57 92/144/58 96/145/59 95/146/60
f 94/147/61 96/148/61 92/149/61 90/150/61
f 82/151/62 81/152/63 98/153/64 97/154/65
f 99/155/56 87/156/56 82/157/56 97/158/56
f 99/159/66 100/160/67 88/161/68 87/162/69
f 81/163/61 88/164/61 100/165/61 98/166/61
usemtl lambert2SG
s off
f 77/167/70 78/168/70 79/169/70 80/170/70
f 83/171/71 84/172/71 85/173/71 86/174/71
s 1
f 80/170/72 79/169/72 81/152/63 82/151/62
f 87/162/69 88/161/68 78/175/73 77/176/73
f 78/168/61 88/164/61 81/163/61 79/169/61
f 87/156/56 77/167/56 80/170/56 82/157/56
f 89/138/55 90/137/54 84/172/74 83/171/74
f 86/174/75 85/173/75 92/144/58 91/143/57
f 90/150/61 92/149/61 85/177/61 84/178/61
f 97/154/65 98/153/64 94/136/53 93/135/52
f 95/140/56 99/155/56 97/158/56 93/141/56
f 95/146/60 96/145/59 100/160/67 99/159/66
f 98/166/61 100/165/61 96/148/61 94/147/61
o wingright_spaceship1.004
v -35.157372 -15.673171 -26.716082
v -35.157372 32.882175 -26.716080
v -35.157372 32.882183 -197.167191
v -35.157372 -15.673163 -197.167191
v -35.507736 -5.792575 330.269348
v -35.507736 32.518089 330.269348
v -105.533394 0.107051 330.269257
v -105.533394 -13.704062 330.269257
v -35.507736 32.518097 165.279648
v -124.189018 0.107061 99.815620
v -35.507736 32.518112 -216.300323
v -35.507736 -5.792552 -216.300323
v -149.779144 -13.704038 -216.300323
v -149.779144 0.107074 -216.300323
v -35.507736 -5.792568 165.279648
v -124.189018 -13.704052 99.815620
v -35.507736 32.518112 -137.653717
v -147.889938 0.107073 -192.962845
v -35.507736 -5.792555 -137.653717
v -147.889938 -13.704039 -192.962845
v -35.507736 32.518105 41.830727
v -133.979431 0.107066 -21.125738
v -35.507736 -5.792563 41.830727
v -133.979431 -13.704046 -21.125738
v -35.507736 32.518101 128.771225
v -127.265549 0.107062 61.811005
v -35.507736 -5.792567 128.771225
v -127.265549 -13.704050 61.811005
vt 0.375000 0.410727
vt 0.375000 0.489325
vt 0.625000 0.489325
vt 0.625000 0.410727
vt 0.135675 0.000000
vt 0.135675 0.250000
vt 0.214273 0.250000
vt 0.214273 0.000000
vt 0.375000 0.760675
vt 0.375000 0.839273
vt 0.625000 0.839273
vt 0.625000 0.760675
vt 0.785728 0.250000
vt 0.864325 0.250000
vt 0.864325 0.000000
vt 0.785728 0.000000
vt 0.375000 0.355409
vt 0.375000 0.372792
vt 0.625000 0.372792
vt 0.625000 0.355409
vt 0.252208 0.000000
vt 0.252208 0.250000
vt 0.269591 0.250000
vt 0.269591 0.000000
vt 0.375000 0.877208
vt 0.375000 0.894591
vt 0.625000 0.894591
vt 0.625000 0.877208
vt 0.730409 0.250000
vt 0.747792 0.250000
vt 0.747792 0.000000
vt 0.730409 0.000000
vt 0.125000 0.000000
vt 0.375000 0.000000
vt 0.375000 0.250000
vt 0.125000 0.250000
vt 0.375000 0.000000
vt 0.375000 0.250000
vt 0.625000 0.250000
vt 0.625000 0.000000
vt 0.375000 0.500000
vt 0.375000 0.750000
vt 0.625000 0.750000
vt 0.625000 0.500000
vt 0.375000 1.000000
vt 0.625000 1.000000
vt 0.875000 0.250000
vt 0.875000 0.000000
vn -0.3145 0.9492 0.0124
vn -0.2964 0.9550 0.0109
vn -0.2908 0.9568 0.0093
vn -0.3048 0.9523 0.0121
vn 1.0000 0.0000 0.0000
vn 0.0756 -0.9971 -0.0028
vn 0.0807 -0.9967 -0.0032
vn 0.0779 -0.9970 -0.0031
vn 0.0739 -0.9973 -0.0023
vn -0.9967 0.0000 0.0807
vn -0.3814 0.9243 0.0178
vn -0.3387 0.9408 0.0137
vn -0.3329 0.9429 0.0132
vn -0.3717 0.9282 0.0168
vn 0.0876 -0.9961 -0.0035
vn 0.1003 -0.9949 -0.0047
vn 0.0972 -0.9953 -0.0044
vn 0.0858 -0.9963 -0.0034
vn -1.0000 0.0000 0.0000
vn -0.0000 0.0000 1.0000
vn 0.0000 0.0000 -1.0000
vn -0.3845 0.9230 0.0181
vn 0.1012 -0.9949 -0.0048
vn -0.2761 0.9611 0.0051
vn 0.0700 -0.9975 -0.0013
usemtl lambert3SG
s 1
f 121/179/76 117/180/77 118/181/78 122/182/79
f 119/183/80 117/184/80 121/185/80 123/186/80
f 119/187/81 123/188/82 124/189/83 120/190/84
f 122/191/85 118/192/85 120/193/85 124/194/85
f 109/195/86 125/196/87 126/197/88 110/198/89
f 127/199/80 125/200/80 109/201/80 115/202/80
f 127/203/90 115/204/91 116/205/92 128/206/93
f 110/207/85 126/208/85 128/209/85 116/210/85
usemtl lambert2SG
s off
f 104/211/94 101/212/94 102/213/94 103/214/94
f 105/215/95 106/216/95 107/217/95 108/218/95
f 111/219/96 112/220/96 113/221/96 114/222/96
s 1
f 106/216/97 109/195/86 110/198/89 107/217/97
f 115/204/91 105/223/98 108/224/98 116/205/92
f 108/218/85 107/217/85 110/207/85 116/210/85
f 115/202/80 109/201/80 106/216/80 105/215/80
f 117/180/77 111/219/99 114/222/99 118/181/78
f 112/220/100 119/187/81 120/190/84 113/221/100
f 118/192/85 114/225/85 113/226/85 120/193/85
f 125/196/87 121/179/76 122/182/79 126/197/88
f 123/186/80 121/185/80 125/200/80 127/199/80
f 123/188/82 127/203/90 128/206/93 124/189/83
f 126/208/85 122/191/85 124/194/85 128/209/85
o cannonleft_spaceship1.005
v 55.097660 1.852988 410.569305
v 55.097660 17.115023 410.569305
v 39.835625 17.115023 410.569305
v 39.835625 1.852988 410.569305
v 55.097660 17.115025 328.032013
v 39.835625 17.115025 328.032013
v 55.097660 1.852992 328.032013
v 39.835625 1.852992 328.032013
v 51.814995 5.135646 488.414490
v 51.814995 13.832358 488.414490
v 43.118286 13.832358 488.414490
v 43.118286 5.135646 488.414490
v 51.814995 13.832361 409.584076
v 43.118286 13.832361 409.584076
v 51.814995 5.135650 409.584076
v 43.118286 5.135650 409.584076
vt 0.375000 0.000000
vt 0.375000 0.250000
vt 0.625000 0.250000
vt 0.625000 0.000000
vt 0.375000 0.500000
vt 0.625000 0.500000
vt 0.375000 0.750000
vt 0.375000 1.000000
vt 0.625000 1.000000
vt 0.625000 0.750000
vt 0.875000 0.250000
vt 0.875000 0.000000
vt 0.125000 0.000000
vt 0.125000 0.250000
vt 0.375000 0.000000
vt 0.375000 0.250000
vt 0.625000 0.250000
vt 0.625000 0.000000
vt 0.375000 0.500000
vt 0.625000 0.500000
vt 0.375000 0.750000
vt 0.375000 1.000000
vt 0.625000 1.000000
vt 0.625000 0.750000
vt 0.875000 0.250000
vt 0.875000 0.000000
vt 0.125000 0.000000
vt 0.125000 0.250000
vn 0.0000 0.0000 1.0000
vn 0.0000 1.0000 0.0000
vn 0.0000 -1.0000 -0.0000
vn -1.0000 0.0000 0.0000
vn 1.0000 0.0000 0.0000
usemtl lambert4SG
s off
f 129/227/101 130/228/101 131/229/101 132/230/101
f 130/228/102 133/231/102 134/232/102 131/229/102
f 135/233/103 129/234/103 132/235/103 136/236/103
f 132/230/104 131/229/104 134/237/104 136/238/104
f 135/239/105 133/240/105 130/228/105 129/227/105
f 137/241/101 138/242/101 139/243/101 140/244/101
f 138/242/102 141/245/102 142/246/102 139/243/102
f 143/247/103 137/248/103 140/249/103 144/250/103
f 140/244/104 139/243/104 142/251/104 144/252/104
f 143/253/105 141/254/105 138/242/105 137/241/105
o cannonright_spaceship1.006
v -39.596470 1.852988 410.569305
v -39.596470 17.115023 410.569305
v -54.858505 17.115023 410.569305
v -54.858505 1.852988 410.569305
v -39.596470 17.115025 328.032013
v -54.858505 17.115025 328.032013
v -39.596470 1.852992 328.032013
v -54.858505 1.852992 328.032013
v -42.879135 5.135646 488.414490
v -42.879135 13.832358 488.414490
v -51.575844 13.832358 488.414490
v -51.575844 5.135646 488.414490
v -42.879135 13.832361 409.584076
v -51.575844 13.832361 409.584076
v -42.879135 5.135650 409.584076
v -51.575844 5.135650 409.584076
vt 0.375000 0.000000
vt 0.375000 0.250000
vt 0.625000 0.250000
vt 0.625000 0.000000
vt 0.375000 0.500000
vt 0.625000 0.500000
vt 0.375000 0.750000
vt 0.375000 1.000000
vt 0.625000 1.000000
vt 0.625000 0.750000
vt 0.875000 0.250000
vt 0.875000 0.000000
vt 0.125000 0.000000
vt 0.125000 0.250000
vt 0.375000 0.000000
vt 0.375000 0.250000
vt 0.625000 0.250000
vt 0.625000 0.000000
vt 0.375000 0.500000
vt 0.625000 0.500000
vt 0.375000 0.750000
vt 0.375000 1.000000
vt 0.625000 1.000000
vt 0.625000 0.750000
vt 0.875000 0.250000
vt 0.875000 0.000000
vt 0.125000 0.000000
vt 0.125000 0.250000
vn 0.0000 0.0000 1.0000
vn 0.0000 1.0000 0.0000
vn 0.0000 -1.0000 -0.0000
vn -1.0000 0.0000 0.0000
vn 1.0000 0.0000 0.0000
usemtl lambert4SG
s off
f 145/255/106 146/256/106 147/257/106 148/258/106
f 146/256/107 149/259/107 150/260/107 147/257/107
f 151/261/108 145/262/108 148/263/108 152/264/108
f 148/258/109 147/257/109 150/265/109 152/266/109
f 151/267/110 149/268/110 146/256/110 145/255/110
f 153/269/106 154/270/106 155/271/106 156/272/106
f 154/270/107 157/273/107 158/274/107 155/271/107
f 159/275/108 153/276/108 156/277/108 160/278/108
f 156/272/109 155/271/109 158/279/109 160/280/109
f 159/281/110 157/282/110 154/270/110 153/269/110
